<svg xmlns="http://www.w3.org/2000/svg" version="1.1" xmlns:xlink="http://www.w3.org/1999/xlink" xmlns:svgjs="http://svgjs.com/svgjs" width="770" height="560" preserveAspectRatio="none" viewBox="0 0 770 560">
    <g mask="url(&quot;#SvgjsMask1010&quot;)" fill="none">
        <path d="M-60 432.94L-60 432.94" stroke="#132e65" stroke-width="1.5"></path>
        <path d="M-60 432.94L-35.34 544.97" stroke="#132e65" stroke-width="1.5"></path>
        <path d="M-60 432.94L42.98 550.58" stroke="#132e65" stroke-width="1.5"></path>
        <path d="M-60 432.94L129.03 455.53" stroke="#132e65" stroke-width="1.5"></path>
        <path d="M-60 432.94L39.77 615.29" stroke="#132e65" stroke-width="1.5"></path>
        <path d="M-60 432.94L141.78 345.36" stroke="#132e65" stroke-width="1.5"></path>
        <path d="M-35.34 544.97L-35.34 544.97" stroke="#132e65" stroke-width="1.5"></path>
        <path d="M-35.34 544.97L42.98 550.58" stroke="#132e65" stroke-width="1.5"></path>
        <path d="M-35.34 544.97L39.77 615.29" stroke="#132e65" stroke-width="1.5"></path>
        <path d="M-35.34 544.97L129.03 455.53" stroke="#132e65" stroke-width="1.5"></path>
        <path d="M-35.34 544.97L166.44 534.01" stroke="#132e65" stroke-width="1.5"></path>
        <path d="M-35.34 544.97L162.22 644.75" stroke="#132e65" stroke-width="1.5"></path>
        <path d="M42.98 550.58L42.98 550.58" stroke="#132e65" stroke-width="1.5"></path>
        <path d="M42.98 550.58L39.77 615.29" stroke="#132e65" stroke-width="1.5"></path>
        <path d="M42.98 550.58L166.44 534.01" stroke="#132e65" stroke-width="1.5"></path>
        <path d="M39.77 615.29L39.77 615.29" stroke="#132e65" stroke-width="1.5"></path>
        <path d="M141.78 345.36L141.78 345.36" stroke="#132e65" stroke-width="1.5"></path>
        <path d="M141.78 345.36L129.03 455.53" stroke="#132e65" stroke-width="1.5"></path>
        <path d="M141.78 345.36L262.25 351.01" stroke="#132e65" stroke-width="1.5"></path>
        <path d="M129.03 455.53L129.03 455.53" stroke="#132e65" stroke-width="1.5"></path>
        <path d="M129.03 455.53L166.44 534.01" stroke="#132e65" stroke-width="1.5"></path>
        <path d="M129.03 455.53L239.76 451.75" stroke="#132e65" stroke-width="1.5"></path>
        <path d="M166.44 534.01L166.44 534.01" stroke="#132e65" stroke-width="1.5"></path>
        <path d="M166.44 534.01L229.22 543.66" stroke="#132e65" stroke-width="1.5"></path>
        <path d="M162.22 644.75L162.22 644.75" stroke="#132e65" stroke-width="1.5"></path>
        <path d="M162.22 644.75L251.37 635.23" stroke="#132e65" stroke-width="1.5"></path>
        <path d="M162.22 644.75L166.44 534.01" stroke="#132e65" stroke-width="1.5"></path>
        <path d="M162.22 644.75L229.22 543.66" stroke="#132e65" stroke-width="1.5"></path>
        <path d="M162.22 644.75L39.77 615.29" stroke="#132e65" stroke-width="1.5"></path>
        <path d="M162.22 644.75L42.98 550.58" stroke="#132e65" stroke-width="1.5"></path>
        <path d="M162.22 644.75L332.58 634.69" stroke="#132e65" stroke-width="1.5"></path>
        <path d="M262.25 351.01L262.25 351.01" stroke="#132e65" stroke-width="1.5"></path>
        <path d="M262.25 351.01L339.03 325.32" stroke="#132e65" stroke-width="1.5"></path>
        <path d="M262.25 351.01L345.28 410.18" stroke="#132e65" stroke-width="1.5"></path>
        <path d="M239.76 451.75L239.76 451.75" stroke="#132e65" stroke-width="1.5"></path>
        <path d="M239.76 451.75L229.22 543.66" stroke="#132e65" stroke-width="1.5"></path>
        <path d="M239.76 451.75L262.25 351.01" stroke="#132e65" stroke-width="1.5"></path>
        <path d="M239.76 451.75L166.44 534.01" stroke="#132e65" stroke-width="1.5"></path>
        <path d="M239.76 451.75L345.28 410.18" stroke="#132e65" stroke-width="1.5"></path>
        <path d="M239.76 451.75L141.78 345.36" stroke="#132e65" stroke-width="1.5"></path>
        <path d="M229.22 543.66L229.22 543.66" stroke="#132e65" stroke-width="1.5"></path>
        <path d="M229.22 543.66L251.37 635.23" stroke="#132e65" stroke-width="1.5"></path>
        <path d="M229.22 543.66L129.03 455.53" stroke="#132e65" stroke-width="1.5"></path>
        <path d="M251.37 635.23L251.37 635.23" stroke="#132e65" stroke-width="1.5"></path>
        <path d="M251.37 635.23L332.58 634.69" stroke="#132e65" stroke-width="1.5"></path>
        <path d="M336 252.75L336 252.75" stroke="#132e65" stroke-width="1.5"></path>
        <path d="M336 252.75L339.03 325.32" stroke="#132e65" stroke-width="1.5"></path>
        <path d="M336 252.75L430.79 313.58" stroke="#132e65" stroke-width="1.5"></path>
        <path d="M336 252.75L262.25 351.01" stroke="#132e65" stroke-width="1.5"></path>
        <path d="M339.03 325.32L339.03 325.32" stroke="#132e65" stroke-width="1.5"></path>
        <path d="M345.28 410.18L345.28 410.18" stroke="#132e65" stroke-width="1.5"></path>
        <path d="M345.28 410.18L339.03 325.32" stroke="#132e65" stroke-width="1.5"></path>
        <path d="M345.28 410.18L437.54 433.65" stroke="#132e65" stroke-width="1.5"></path>
        <path d="M332.58 634.69L332.58 634.69" stroke="#132e65" stroke-width="1.5"></path>
        <path d="M332.58 634.69L445.86 648.08" stroke="#132e65" stroke-width="1.5"></path>
        <path d="M332.58 634.69L229.22 543.66" stroke="#132e65" stroke-width="1.5"></path>
        <path d="M332.58 634.69L446.89 552.72" stroke="#132e65" stroke-width="1.5"></path>
        <path d="M332.58 634.69L166.44 534.01" stroke="#132e65" stroke-width="1.5"></path>
        <path d="M431.38 137.32L431.38 137.32" stroke="#132e65" stroke-width="1.5"></path>
        <path d="M431.38 137.32L508.11 129.51" stroke="#132e65" stroke-width="1.5"></path>
        <path d="M431.38 137.32L514.83 41.4" stroke="#132e65" stroke-width="1.5"></path>
        <path d="M431.38 137.32L336 252.75" stroke="#132e65" stroke-width="1.5"></path>
        <path d="M431.38 137.32L550.62 231.75" stroke="#132e65" stroke-width="1.5"></path>
        <path d="M431.38 137.32L430.79 313.58" stroke="#132e65" stroke-width="1.5"></path>
        <path d="M430.79 313.58L430.79 313.58" stroke="#132e65" stroke-width="1.5"></path>
        <path d="M430.79 313.58L339.03 325.32" stroke="#132e65" stroke-width="1.5"></path>
        <path d="M430.79 313.58L545.31 329.65" stroke="#132e65" stroke-width="1.5"></path>
        <path d="M430.79 313.58L437.54 433.65" stroke="#132e65" stroke-width="1.5"></path>
        <path d="M437.54 433.65L437.54 433.65" stroke="#132e65" stroke-width="1.5"></path>
        <path d="M437.54 433.65L446.89 552.72" stroke="#132e65" stroke-width="1.5"></path>
        <path d="M437.54 433.65L543.56 507.71" stroke="#132e65" stroke-width="1.5"></path>
        <path d="M437.54 433.65L339.03 325.32" stroke="#132e65" stroke-width="1.5"></path>
        <path d="M437.54 433.65L545.31 329.65" stroke="#132e65" stroke-width="1.5"></path>
        <path d="M446.89 552.72L446.89 552.72" stroke="#132e65" stroke-width="1.5"></path>
        <path d="M446.89 552.72L445.86 648.08" stroke="#132e65" stroke-width="1.5"></path>
        <path d="M446.89 552.72L543.56 507.71" stroke="#132e65" stroke-width="1.5"></path>
        <path d="M445.86 648.08L445.86 648.08" stroke="#132e65" stroke-width="1.5"></path>
        <path d="M445.86 648.08L550.1 629.93" stroke="#132e65" stroke-width="1.5"></path>
        <path d="M515.55 -40.04L515.55 -40.04" stroke="#132e65" stroke-width="1.5"></path>
        <path d="M515.55 -40.04L514.83 41.4" stroke="#132e65" stroke-width="1.5"></path>
        <path d="M515.55 -40.04L604.6 -58.64" stroke="#132e65" stroke-width="1.5"></path>
        <path d="M515.55 -40.04L637.54 27.17" stroke="#132e65" stroke-width="1.5"></path>
        <path d="M515.55 -40.04L508.11 129.51" stroke="#132e65" stroke-width="1.5"></path>
        <path d="M515.55 -40.04L431.38 137.32" stroke="#132e65" stroke-width="1.5"></path>
        <path d="M514.83 41.4L514.83 41.4" stroke="#132e65" stroke-width="1.5"></path>
        <path d="M514.83 41.4L508.11 129.51" stroke="#132e65" stroke-width="1.5"></path>
        <path d="M514.83 41.4L637.54 27.17" stroke="#132e65" stroke-width="1.5"></path>
        <path d="M514.83 41.4L604.6 -58.64" stroke="#132e65" stroke-width="1.5"></path>
        <path d="M508.11 129.51L508.11 129.51" stroke="#132e65" stroke-width="1.5"></path>
        <path d="M508.11 129.51L550.62 231.75" stroke="#132e65" stroke-width="1.5"></path>
        <path d="M508.11 129.51L619.27 150.65" stroke="#132e65" stroke-width="1.5"></path>
        <path d="M508.11 129.51L637.54 27.17" stroke="#132e65" stroke-width="1.5"></path>
        <path d="M550.62 231.75L550.62 231.75" stroke="#132e65" stroke-width="1.5"></path>
        <path d="M550.62 231.75L622.93 256.4" stroke="#132e65" stroke-width="1.5"></path>
        <path d="M550.62 231.75L545.31 329.65" stroke="#132e65" stroke-width="1.5"></path>
        <path d="M550.62 231.75L619.27 150.65" stroke="#132e65" stroke-width="1.5"></path>
        <path d="M545.31 329.65L545.31 329.65" stroke="#132e65" stroke-width="1.5"></path>
        <path d="M545.31 329.65L614.62 324.31" stroke="#132e65" stroke-width="1.5"></path>
        <path d="M545.31 329.65L622.93 256.4" stroke="#132e65" stroke-width="1.5"></path>
        <path d="M545.31 329.65L607.66 416.93" stroke="#132e65" stroke-width="1.5"></path>
        <path d="M543.56 507.71L543.56 507.71" stroke="#132e65" stroke-width="1.5"></path>
        <path d="M543.56 507.71L615.3 513.66" stroke="#132e65" stroke-width="1.5"></path>
        <path d="M550.1 629.93L550.1 629.93" stroke="#132e65" stroke-width="1.5"></path>
        <path d="M550.1 629.93L646.78 616.73" stroke="#132e65" stroke-width="1.5"></path>
        <path d="M550.1 629.93L543.56 507.71" stroke="#132e65" stroke-width="1.5"></path>
        <path d="M550.1 629.93L446.89 552.72" stroke="#132e65" stroke-width="1.5"></path>
        <path d="M550.1 629.93L615.3 513.66" stroke="#132e65" stroke-width="1.5"></path>
        <path d="M604.6 -58.64L604.6 -58.64" stroke="#132e65" stroke-width="1.5"></path>
        <path d="M604.6 -58.64L637.54 27.17" stroke="#132e65" stroke-width="1.5"></path>
        <path d="M637.54 27.17L637.54 27.17" stroke="#132e65" stroke-width="1.5"></path>
        <path d="M637.54 27.17L707.59 51.97" stroke="#132e65" stroke-width="1.5"></path>
        <path d="M637.54 27.17L619.27 150.65" stroke="#132e65" stroke-width="1.5"></path>
        <path d="M619.27 150.65L619.27 150.65" stroke="#132e65" stroke-width="1.5"></path>
        <path d="M619.27 150.65L723.27 145.36" stroke="#132e65" stroke-width="1.5"></path>
        <path d="M619.27 150.65L622.93 256.4" stroke="#132e65" stroke-width="1.5"></path>
        <path d="M622.93 256.4L622.93 256.4" stroke="#132e65" stroke-width="1.5"></path>
        <path d="M622.93 256.4L614.62 324.31" stroke="#132e65" stroke-width="1.5"></path>
        <path d="M614.62 324.31L614.62 324.31" stroke="#132e65" stroke-width="1.5"></path>
        <path d="M607.66 416.93L607.66 416.93" stroke="#132e65" stroke-width="1.5"></path>
        <path d="M607.66 416.93L614.62 324.31" stroke="#132e65" stroke-width="1.5"></path>
        <path d="M615.3 513.66L615.3 513.66" stroke="#132e65" stroke-width="1.5"></path>
        <path d="M615.3 513.66L607.66 416.93" stroke="#132e65" stroke-width="1.5"></path>
        <path d="M615.3 513.66L721.09 527.48" stroke="#132e65" stroke-width="1.5"></path>
        <path d="M646.78 616.73L646.78 616.73" stroke="#132e65" stroke-width="1.5"></path>
        <path d="M646.78 616.73L740.72 644.65" stroke="#132e65" stroke-width="1.5"></path>
        <path d="M646.78 616.73L615.3 513.66" stroke="#132e65" stroke-width="1.5"></path>
        <path d="M646.78 616.73L721.09 527.48" stroke="#132e65" stroke-width="1.5"></path>
        <path d="M646.78 616.73L543.56 507.71" stroke="#132e65" stroke-width="1.5"></path>
        <path d="M646.78 616.73L802.54 516.87" stroke="#132e65" stroke-width="1.5"></path>
        <path d="M707.59 51.97L707.59 51.97" stroke="#132e65" stroke-width="1.5"></path>
        <path d="M707.59 51.97L723.27 145.36" stroke="#132e65" stroke-width="1.5"></path>
        <path d="M707.59 51.97L807.12 36.48" stroke="#132e65" stroke-width="1.5"></path>
        <path d="M707.59 51.97L619.27 150.65" stroke="#132e65" stroke-width="1.5"></path>
        <path d="M707.59 51.97L817.41 140.04" stroke="#132e65" stroke-width="1.5"></path>
        <path d="M707.59 51.97L604.6 -58.64" stroke="#132e65" stroke-width="1.5"></path>
        <path d="M723.27 145.36L723.27 145.36" stroke="#132e65" stroke-width="1.5"></path>
        <path d="M723.27 145.36L817.41 140.04" stroke="#132e65" stroke-width="1.5"></path>
        <path d="M737.74 245.09L737.74 245.09" stroke="#132e65" stroke-width="1.5"></path>
        <path d="M737.74 245.09L709.02 328.45" stroke="#132e65" stroke-width="1.5"></path>
        <path d="M709.02 328.45L709.02 328.45" stroke="#132e65" stroke-width="1.5"></path>
        <path d="M709.02 328.45L614.62 324.31" stroke="#132e65" stroke-width="1.5"></path>
        <path d="M709.02 328.45L740.51 421.54" stroke="#132e65" stroke-width="1.5"></path>
        <path d="M709.02 328.45L622.93 256.4" stroke="#132e65" stroke-width="1.5"></path>
        <path d="M740.51 421.54L740.51 421.54" stroke="#132e65" stroke-width="1.5"></path>
        <path d="M740.51 421.54L827.15 444.3" stroke="#132e65" stroke-width="1.5"></path>
        <path d="M740.51 421.54L825.49 356.54" stroke="#132e65" stroke-width="1.5"></path>
        <path d="M740.51 421.54L721.09 527.48" stroke="#132e65" stroke-width="1.5"></path>
        <path d="M740.51 421.54L802.54 516.87" stroke="#132e65" stroke-width="1.5"></path>
        <path d="M721.09 527.48L721.09 527.48" stroke="#132e65" stroke-width="1.5"></path>
        <path d="M721.09 527.48L802.54 516.87" stroke="#132e65" stroke-width="1.5"></path>
        <path d="M740.72 644.65L740.72 644.65" stroke="#132e65" stroke-width="1.5"></path>
        <path d="M740.72 644.65L721.09 527.48" stroke="#132e65" stroke-width="1.5"></path>
        <path d="M833.72 -54.14L833.72 -54.14" stroke="#132e65" stroke-width="1.5"></path>
        <path d="M833.72 -54.14L807.12 36.48" stroke="#132e65" stroke-width="1.5"></path>
        <path d="M833.72 -54.14L707.59 51.97" stroke="#132e65" stroke-width="1.5"></path>
        <path d="M807.12 36.48L807.12 36.48" stroke="#132e65" stroke-width="1.5"></path>
        <path d="M807.12 36.48L817.41 140.04" stroke="#132e65" stroke-width="1.5"></path>
        <path d="M817.41 140.04L817.41 140.04" stroke="#132e65" stroke-width="1.5"></path>
        <path d="M817.41 140.04L837.22 217.33" stroke="#132e65" stroke-width="1.5"></path>
        <path d="M817.41 140.04L737.74 245.09" stroke="#132e65" stroke-width="1.5"></path>
        <path d="M837.22 217.33L837.22 217.33" stroke="#132e65" stroke-width="1.5"></path>
        <path d="M837.22 217.33L737.74 245.09" stroke="#132e65" stroke-width="1.5"></path>
        <path d="M837.22 217.33L723.27 145.36" stroke="#132e65" stroke-width="1.5"></path>
        <path d="M837.22 217.33L825.49 356.54" stroke="#132e65" stroke-width="1.5"></path>
        <path d="M825.49 356.54L825.49 356.54" stroke="#132e65" stroke-width="1.5"></path>
        <path d="M825.49 356.54L827.15 444.3" stroke="#132e65" stroke-width="1.5"></path>
        <path d="M825.49 356.54L709.02 328.45" stroke="#132e65" stroke-width="1.5"></path>
        <path d="M827.15 444.3L827.15 444.3" stroke="#132e65" stroke-width="1.5"></path>
        <path d="M827.15 444.3L802.54 516.87" stroke="#132e65" stroke-width="1.5"></path>
        <path d="M802.54 516.87L802.54 516.87" stroke="#132e65" stroke-width="1.5"></path>
        <path d="M802.54 516.87L740.72 644.65" stroke="#132e65" stroke-width="1.5"></path>
        <path d="M802.54 516.87L825.49 356.54" stroke="#132e65" stroke-width="1.5"></path>
        <circle r="5" cx="-60" cy="432.94" fill="#132e65"></circle>
        <circle r="5" cx="-35.34" cy="544.97" fill="#132e65"></circle>
        <circle r="5" cx="42.98" cy="550.58" fill="#132e65"></circle>
        <circle r="5" cx="39.77" cy="615.29" fill="#132e65"></circle>
        <circle r="5" cx="141.78" cy="345.36" fill="#132e65"></circle>
        <circle r="5" cx="129.03" cy="455.53" fill="#132e65"></circle>
        <circle r="5" cx="166.44" cy="534.01" fill="#132e65"></circle>
        <circle r="5" cx="162.22" cy="644.75" fill="#132e65"></circle>
        <circle r="5" cx="262.25" cy="351.01" fill="#132e65"></circle>
        <circle r="5" cx="239.76" cy="451.75" fill="#132e65"></circle>
        <circle r="5" cx="229.22" cy="543.66" fill="#132e65"></circle>
        <circle r="5" cx="251.37" cy="635.23" fill="#132e65"></circle>
        <circle r="5" cx="336" cy="252.75" fill="#132e65"></circle>
        <circle r="5" cx="339.03" cy="325.32" fill="#132e65"></circle>
        <circle r="5" cx="345.28" cy="410.18" fill="#132e65"></circle>
        <circle r="5" cx="332.58" cy="634.69" fill="#132e65"></circle>
        <circle r="5" cx="431.38" cy="137.32" fill="#132e65"></circle>
        <circle r="5" cx="430.79" cy="313.58" fill="#132e65"></circle>
        <circle r="5" cx="437.54" cy="433.65" fill="#132e65"></circle>
        <circle r="5" cx="446.89" cy="552.72" fill="#132e65"></circle>
        <circle r="5" cx="445.86" cy="648.08" fill="#132e65"></circle>
        <circle r="5" cx="515.55" cy="-40.04" fill="#132e65"></circle>
        <circle r="5" cx="514.83" cy="41.4" fill="#132e65"></circle>
        <circle r="5" cx="508.11" cy="129.51" fill="#132e65"></circle>
        <circle r="5" cx="550.62" cy="231.75" fill="#132e65"></circle>
        <circle r="5" cx="545.31" cy="329.65" fill="#132e65"></circle>
        <circle r="5" cx="543.56" cy="507.71" fill="#132e65"></circle>
        <circle r="5" cx="550.1" cy="629.93" fill="#132e65"></circle>
        <circle r="5" cx="604.6" cy="-58.64" fill="#132e65"></circle>
        <circle r="5" cx="637.54" cy="27.17" fill="#132e65"></circle>
        <circle r="5" cx="619.27" cy="150.65" fill="#132e65"></circle>
        <circle r="5" cx="622.93" cy="256.4" fill="#132e65"></circle>
        <circle r="5" cx="614.62" cy="324.31" fill="#132e65"></circle>
        <circle r="5" cx="607.66" cy="416.93" fill="#132e65"></circle>
        <circle r="5" cx="615.3" cy="513.66" fill="#132e65"></circle>
        <circle r="5" cx="646.78" cy="616.73" fill="#132e65"></circle>
        <circle r="5" cx="707.59" cy="51.97" fill="#132e65"></circle>
        <circle r="5" cx="723.27" cy="145.36" fill="#132e65"></circle>
        <circle r="5" cx="737.74" cy="245.09" fill="#132e65"></circle>
        <circle r="5" cx="709.02" cy="328.45" fill="#132e65"></circle>
        <circle r="5" cx="740.51" cy="421.54" fill="#132e65"></circle>
        <circle r="5" cx="721.09" cy="527.48" fill="#132e65"></circle>
        <circle r="5" cx="740.72" cy="644.65" fill="#132e65"></circle>
        <circle r="5" cx="833.72" cy="-54.14" fill="#132e65"></circle>
        <circle r="5" cx="807.12" cy="36.48" fill="#132e65"></circle>
        <circle r="5" cx="817.41" cy="140.04" fill="#132e65"></circle>
        <circle r="5" cx="837.22" cy="217.33" fill="#132e65"></circle>
        <circle r="5" cx="825.49" cy="356.54" fill="#132e65"></circle>
        <circle r="5" cx="827.15" cy="444.3" fill="#132e65"></circle>
        <circle r="5" cx="802.54" cy="516.87" fill="#132e65"></circle>
        <path d="M36.87 644.61L36.87 644.61" stroke="hsl(228.5, 77.2%, 51.5%)" stroke-width="1.5"></path>
        <path d="M36.87 644.61L133.79 613.42" stroke="hsl(228.5, 77.2%, 51.5%)" stroke-width="1.5"></path>
        <path d="M36.87 644.61L-66.81 629.13" stroke="hsl(228.5, 77.2%, 51.5%)" stroke-width="1.5"></path>
        <path d="M36.87 644.61L42.64 515.17" stroke="hsl(228.5, 77.2%, 51.5%)" stroke-width="1.5"></path>
        <path d="M36.87 644.61L-49.83 527.06" stroke="hsl(228.5, 77.2%, 51.5%)" stroke-width="1.5"></path>
        <path d="M36.87 644.61L162.02 532.37" stroke="hsl(228.5, 77.2%, 51.5%)" stroke-width="1.5"></path>
        <path d="M36.87 644.61L251.23 638.83" stroke="hsl(228.5, 77.2%, 51.5%)" stroke-width="1.5"></path>
        <path d="M162.02 532.37L162.02 532.37" stroke="hsl(228.5, 77.2%, 51.5%)" stroke-width="1.5"></path>
        <path d="M162.02 532.37L166.53 454.6" stroke="hsl(228.5, 77.2%, 51.5%)" stroke-width="1.5"></path>
        <path d="M162.02 532.37L133.79 613.42" stroke="hsl(228.5, 77.2%, 51.5%)" stroke-width="1.5"></path>
        <path d="M446.74 426.55L446.74 426.55" stroke="hsl(228.5, 77.2%, 51.5%)" stroke-width="1.5"></path>
        <path d="M446.74 426.55L417.07 508.91" stroke="hsl(228.5, 77.2%, 51.5%)" stroke-width="1.5"></path>
        <path d="M446.74 426.55L543.97 438.6" stroke="hsl(228.5, 77.2%, 51.5%)" stroke-width="1.5"></path>
        <path d="M446.74 426.55L543.38 355.24" stroke="hsl(228.5, 77.2%, 51.5%)" stroke-width="1.5"></path>
        <path d="M446.74 426.55L519.94 531.47" stroke="hsl(228.5, 77.2%, 51.5%)" stroke-width="1.5"></path>
        <path d="M446.74 426.55L314.92 448.93" stroke="hsl(228.5, 77.2%, 51.5%)" stroke-width="1.5"></path>
        <path d="M446.74 426.55L339.85 518.81" stroke="hsl(228.5, 77.2%, 51.5%)" stroke-width="1.5"></path>
        <path d="M519.94 531.47L519.94 531.47" stroke="hsl(228.5, 77.2%, 51.5%)" stroke-width="1.5"></path>
        <path d="M519.94 531.47L543.97 438.6" stroke="hsl(228.5, 77.2%, 51.5%)" stroke-width="1.5"></path>
        <path d="M519.94 531.47L417.07 508.91" stroke="hsl(228.5, 77.2%, 51.5%)" stroke-width="1.5"></path>
        <path d="M519.94 531.47L605.42 441.64" stroke="hsl(228.5, 77.2%, 51.5%)" stroke-width="1.5"></path>
        <path d="M635.61 63.11L635.61 63.11" stroke="hsl(228.5, 77.2%, 51.5%)" stroke-width="1.5"></path>
        <path d="M635.61 63.11L607.91 130.18" stroke="hsl(228.5, 77.2%, 51.5%)" stroke-width="1.5"></path>
        <path d="M635.61 63.11L718.63 135.59" stroke="hsl(228.5, 77.2%, 51.5%)" stroke-width="1.5"></path>
        <path d="M635.61 63.11L742.66 34.29" stroke="hsl(228.5, 77.2%, 51.5%)" stroke-width="1.5"></path>
        <path d="M635.61 63.11L700.52 -71.27" stroke="hsl(228.5, 77.2%, 51.5%)" stroke-width="1.5"></path>
        <path d="M635.61 63.11L811.36 68.21" stroke="hsl(228.5, 77.2%, 51.5%)" stroke-width="1.5"></path>
        <path d="M628.97 255.51L628.97 255.51" stroke="hsl(228.5, 77.2%, 51.5%)" stroke-width="1.5"></path>
        <path d="M628.97 255.51L612.54 318.8" stroke="hsl(228.5, 77.2%, 51.5%)" stroke-width="1.5"></path>
        <path d="M628.97 255.51L702.31 250" stroke="hsl(228.5, 77.2%, 51.5%)" stroke-width="1.5"></path>
        <path d="M730.67 443L730.67 443" stroke="hsl(228.5, 77.2%, 51.5%)" stroke-width="1.5"></path>
        <path d="M730.67 443L810.11 436.46" stroke="hsl(228.5, 77.2%, 51.5%)" stroke-width="1.5"></path>
        <path d="M730.67 443L704.14 541.58" stroke="hsl(228.5, 77.2%, 51.5%)" stroke-width="1.5"></path>
        <path d="M730.67 443L701.26 342.38" stroke="hsl(228.5, 77.2%, 51.5%)" stroke-width="1.5"></path>
        <path d="M700.57 649.69L700.57 649.69" stroke="hsl(228.5, 77.2%, 51.5%)" stroke-width="1.5"></path>
        <path d="M700.57 649.69L644.45 607.26" stroke="hsl(228.5, 77.2%, 51.5%)" stroke-width="1.5"></path>
        <path d="M700.57 649.69L704.14 541.58" stroke="hsl(228.5, 77.2%, 51.5%)" stroke-width="1.5"></path>
        <path d="M840.01 129.81L840.01 129.81" stroke="hsl(228.5, 77.2%, 51.5%)" stroke-width="1.5"></path>
        <path d="M840.01 129.81L811.36 68.21" stroke="hsl(228.5, 77.2%, 51.5%)" stroke-width="1.5"></path>
        <path d="M840.01 129.81L802.6 227.52" stroke="hsl(228.5, 77.2%, 51.5%)" stroke-width="1.5"></path>
        <path d="M-49.83 527.06L-49.83 527.06" stroke="hsl(228.5, 77.2%, 51.5%)" stroke-width="1.5"></path>
        <path d="M-49.83 527.06L42.64 515.17" stroke="hsl(228.5, 77.2%, 51.5%)" stroke-width="1.5"></path>
        <path d="M-49.83 527.06L-66.81 629.13" stroke="hsl(228.5, 77.2%, 51.5%)" stroke-width="1.5"></path>
        <path d="M-49.83 527.06L133.79 613.42" stroke="hsl(228.5, 77.2%, 51.5%)" stroke-width="1.5"></path>
        <path d="M-66.81 629.13L-66.81 629.13" stroke="hsl(228.5, 77.2%, 51.5%)" stroke-width="1.5"></path>
        <path d="M-66.81 629.13L42.64 515.17" stroke="hsl(228.5, 77.2%, 51.5%)" stroke-width="1.5"></path>
        <path d="M42.64 515.17L42.64 515.17" stroke="hsl(228.5, 77.2%, 51.5%)" stroke-width="1.5"></path>
        <path d="M42.64 515.17L162.02 532.37" stroke="hsl(228.5, 77.2%, 51.5%)" stroke-width="1.5"></path>
        <path d="M42.64 515.17L133.79 613.42" stroke="hsl(228.5, 77.2%, 51.5%)" stroke-width="1.5"></path>
        <path d="M166.53 454.6L166.53 454.6" stroke="hsl(228.5, 77.2%, 51.5%)" stroke-width="1.5"></path>
        <path d="M166.53 454.6L236.59 455.4" stroke="hsl(228.5, 77.2%, 51.5%)" stroke-width="1.5"></path>
        <path d="M133.79 613.42L133.79 613.42" stroke="hsl(228.5, 77.2%, 51.5%)" stroke-width="1.5"></path>
        <path d="M133.79 613.42L251.23 638.83" stroke="hsl(228.5, 77.2%, 51.5%)" stroke-width="1.5"></path>
        <path d="M236.59 455.4L236.59 455.4" stroke="hsl(228.5, 77.2%, 51.5%)" stroke-width="1.5"></path>
        <path d="M236.59 455.4L314.92 448.93" stroke="hsl(228.5, 77.2%, 51.5%)" stroke-width="1.5"></path>
        <path d="M236.59 455.4L260.15 533.12" stroke="hsl(228.5, 77.2%, 51.5%)" stroke-width="1.5"></path>
        <path d="M236.59 455.4L162.02 532.37" stroke="hsl(228.5, 77.2%, 51.5%)" stroke-width="1.5"></path>
        <path d="M260.15 533.12L260.15 533.12" stroke="hsl(228.5, 77.2%, 51.5%)" stroke-width="1.5"></path>
        <path d="M260.15 533.12L339.85 518.81" stroke="hsl(228.5, 77.2%, 51.5%)" stroke-width="1.5"></path>
        <path d="M251.23 638.83L251.23 638.83" stroke="hsl(228.5, 77.2%, 51.5%)" stroke-width="1.5"></path>
        <path d="M251.23 638.83L260.15 533.12" stroke="hsl(228.5, 77.2%, 51.5%)" stroke-width="1.5"></path>
        <path d="M251.23 638.83L162.02 532.37" stroke="hsl(228.5, 77.2%, 51.5%)" stroke-width="1.5"></path>
        <path d="M251.23 638.83L339.85 518.81" stroke="hsl(228.5, 77.2%, 51.5%)" stroke-width="1.5"></path>
        <path d="M314.92 448.93L314.92 448.93" stroke="hsl(228.5, 77.2%, 51.5%)" stroke-width="1.5"></path>
        <path d="M314.92 448.93L339.85 518.81" stroke="hsl(228.5, 77.2%, 51.5%)" stroke-width="1.5"></path>
        <path d="M314.92 448.93L260.15 533.12" stroke="hsl(228.5, 77.2%, 51.5%)" stroke-width="1.5"></path>
        <path d="M314.92 448.93L417.07 508.91" stroke="hsl(228.5, 77.2%, 51.5%)" stroke-width="1.5"></path>
        <path d="M314.92 448.93L166.53 454.6" stroke="hsl(228.5, 77.2%, 51.5%)" stroke-width="1.5"></path>
        <path d="M339.85 518.81L339.85 518.81" stroke="hsl(228.5, 77.2%, 51.5%)" stroke-width="1.5"></path>
        <path d="M339.85 518.81L417.07 508.91" stroke="hsl(228.5, 77.2%, 51.5%)" stroke-width="1.5"></path>
        <path d="M339.85 518.81L236.59 455.4" stroke="hsl(228.5, 77.2%, 51.5%)" stroke-width="1.5"></path>
        <path d="M339.85 518.81L420.56 612.68" stroke="hsl(228.5, 77.2%, 51.5%)" stroke-width="1.5"></path>
        <path d="M417.07 508.91L417.07 508.91" stroke="hsl(228.5, 77.2%, 51.5%)" stroke-width="1.5"></path>
        <path d="M417.07 508.91L420.56 612.68" stroke="hsl(228.5, 77.2%, 51.5%)" stroke-width="1.5"></path>
        <path d="M417.07 508.91L543.97 438.6" stroke="hsl(228.5, 77.2%, 51.5%)" stroke-width="1.5"></path>
        <path d="M420.56 612.68L420.56 612.68" stroke="hsl(228.5, 77.2%, 51.5%)" stroke-width="1.5"></path>
        <path d="M544.18 220.43L544.18 220.43" stroke="hsl(228.5, 77.2%, 51.5%)" stroke-width="1.5"></path>
        <path d="M544.18 220.43L628.97 255.51" stroke="hsl(228.5, 77.2%, 51.5%)" stroke-width="1.5"></path>
        <path d="M544.18 220.43L607.91 130.18" stroke="hsl(228.5, 77.2%, 51.5%)" stroke-width="1.5"></path>
        <path d="M544.18 220.43L612.54 318.8" stroke="hsl(228.5, 77.2%, 51.5%)" stroke-width="1.5"></path>
        <path d="M544.18 220.43L543.38 355.24" stroke="hsl(228.5, 77.2%, 51.5%)" stroke-width="1.5"></path>
        <path d="M544.18 220.43L702.31 250" stroke="hsl(228.5, 77.2%, 51.5%)" stroke-width="1.5"></path>
        <path d="M544.18 220.43L635.61 63.11" stroke="hsl(228.5, 77.2%, 51.5%)" stroke-width="1.5"></path>
        <path d="M543.38 355.24L543.38 355.24" stroke="hsl(228.5, 77.2%, 51.5%)" stroke-width="1.5"></path>
        <path d="M543.38 355.24L612.54 318.8" stroke="hsl(228.5, 77.2%, 51.5%)" stroke-width="1.5"></path>
        <path d="M543.38 355.24L543.97 438.6" stroke="hsl(228.5, 77.2%, 51.5%)" stroke-width="1.5"></path>
        <path d="M543.38 355.24L605.42 441.64" stroke="hsl(228.5, 77.2%, 51.5%)" stroke-width="1.5"></path>
        <path d="M543.38 355.24L628.97 255.51" stroke="hsl(228.5, 77.2%, 51.5%)" stroke-width="1.5"></path>
        <path d="M543.97 438.6L543.97 438.6" stroke="hsl(228.5, 77.2%, 51.5%)" stroke-width="1.5"></path>
        <path d="M543.97 438.6L605.42 441.64" stroke="hsl(228.5, 77.2%, 51.5%)" stroke-width="1.5"></path>
        <path d="M607.91 130.18L607.91 130.18" stroke="hsl(228.5, 77.2%, 51.5%)" stroke-width="1.5"></path>
        <path d="M607.91 130.18L718.63 135.59" stroke="hsl(228.5, 77.2%, 51.5%)" stroke-width="1.5"></path>
        <path d="M607.91 130.18L628.97 255.51" stroke="hsl(228.5, 77.2%, 51.5%)" stroke-width="1.5"></path>
        <path d="M612.54 318.8L612.54 318.8" stroke="hsl(228.5, 77.2%, 51.5%)" stroke-width="1.5"></path>
        <path d="M605.42 441.64L605.42 441.64" stroke="hsl(228.5, 77.2%, 51.5%)" stroke-width="1.5"></path>
        <path d="M605.42 441.64L612.54 318.8" stroke="hsl(228.5, 77.2%, 51.5%)" stroke-width="1.5"></path>
        <path d="M605.42 441.64L730.67 443" stroke="hsl(228.5, 77.2%, 51.5%)" stroke-width="1.5"></path>
        <path d="M605.42 441.64L701.26 342.38" stroke="hsl(228.5, 77.2%, 51.5%)" stroke-width="1.5"></path>
        <path d="M644.45 607.26L644.45 607.26" stroke="hsl(228.5, 77.2%, 51.5%)" stroke-width="1.5"></path>
        <path d="M644.45 607.26L704.14 541.58" stroke="hsl(228.5, 77.2%, 51.5%)" stroke-width="1.5"></path>
        <path d="M644.45 607.26L519.94 531.47" stroke="hsl(228.5, 77.2%, 51.5%)" stroke-width="1.5"></path>
        <path d="M700.52 -71.27L700.52 -71.27" stroke="hsl(228.5, 77.2%, 51.5%)" stroke-width="1.5"></path>
        <path d="M700.52 -71.27L742.66 34.29" stroke="hsl(228.5, 77.2%, 51.5%)" stroke-width="1.5"></path>
        <path d="M700.52 -71.27L818.66 -43.9" stroke="hsl(228.5, 77.2%, 51.5%)" stroke-width="1.5"></path>
        <path d="M700.52 -71.27L811.36 68.21" stroke="hsl(228.5, 77.2%, 51.5%)" stroke-width="1.5"></path>
        <path d="M700.52 -71.27L718.63 135.59" stroke="hsl(228.5, 77.2%, 51.5%)" stroke-width="1.5"></path>
        <path d="M742.66 34.29L742.66 34.29" stroke="hsl(228.5, 77.2%, 51.5%)" stroke-width="1.5"></path>
        <path d="M742.66 34.29L811.36 68.21" stroke="hsl(228.5, 77.2%, 51.5%)" stroke-width="1.5"></path>
        <path d="M742.66 34.29L718.63 135.59" stroke="hsl(228.5, 77.2%, 51.5%)" stroke-width="1.5"></path>
        <path d="M742.66 34.29L818.66 -43.9" stroke="hsl(228.5, 77.2%, 51.5%)" stroke-width="1.5"></path>
        <path d="M742.66 34.29L840.01 129.81" stroke="hsl(228.5, 77.2%, 51.5%)" stroke-width="1.5"></path>
        <path d="M718.63 135.59L718.63 135.59" stroke="hsl(228.5, 77.2%, 51.5%)" stroke-width="1.5"></path>
        <path d="M718.63 135.59L811.36 68.21" stroke="hsl(228.5, 77.2%, 51.5%)" stroke-width="1.5"></path>
        <path d="M718.63 135.59L702.31 250" stroke="hsl(228.5, 77.2%, 51.5%)" stroke-width="1.5"></path>
        <path d="M718.63 135.59L840.01 129.81" stroke="hsl(228.5, 77.2%, 51.5%)" stroke-width="1.5"></path>
        <path d="M702.31 250L702.31 250" stroke="hsl(228.5, 77.2%, 51.5%)" stroke-width="1.5"></path>
        <path d="M702.31 250L701.26 342.38" stroke="hsl(228.5, 77.2%, 51.5%)" stroke-width="1.5"></path>
        <path d="M701.26 342.38L701.26 342.38" stroke="hsl(228.5, 77.2%, 51.5%)" stroke-width="1.5"></path>
        <path d="M701.26 342.38L612.54 318.8" stroke="hsl(228.5, 77.2%, 51.5%)" stroke-width="1.5"></path>
        <path d="M704.14 541.58L704.14 541.58" stroke="hsl(228.5, 77.2%, 51.5%)" stroke-width="1.5"></path>
        <path d="M704.14 541.58L815.69 541.94" stroke="hsl(228.5, 77.2%, 51.5%)" stroke-width="1.5"></path>
        <path d="M704.14 541.58L605.42 441.64" stroke="hsl(228.5, 77.2%, 51.5%)" stroke-width="1.5"></path>
        <path d="M818.66 -43.9L818.66 -43.9" stroke="hsl(228.5, 77.2%, 51.5%)" stroke-width="1.5"></path>
        <path d="M818.66 -43.9L811.36 68.21" stroke="hsl(228.5, 77.2%, 51.5%)" stroke-width="1.5"></path>
        <path d="M818.66 -43.9L840.01 129.81" stroke="hsl(228.5, 77.2%, 51.5%)" stroke-width="1.5"></path>
        <path d="M818.66 -43.9L718.63 135.59" stroke="hsl(228.5, 77.2%, 51.5%)" stroke-width="1.5"></path>
        <path d="M811.36 68.21L811.36 68.21" stroke="hsl(228.5, 77.2%, 51.5%)" stroke-width="1.5"></path>
        <path d="M802.6 227.52L802.6 227.52" stroke="hsl(228.5, 77.2%, 51.5%)" stroke-width="1.5"></path>
        <path d="M802.6 227.52L702.31 250" stroke="hsl(228.5, 77.2%, 51.5%)" stroke-width="1.5"></path>
        <path d="M802.6 227.52L718.63 135.59" stroke="hsl(228.5, 77.2%, 51.5%)" stroke-width="1.5"></path>
        <path d="M802.6 227.52L814.17 355.74" stroke="hsl(228.5, 77.2%, 51.5%)" stroke-width="1.5"></path>
        <path d="M802.6 227.52L701.26 342.38" stroke="hsl(228.5, 77.2%, 51.5%)" stroke-width="1.5"></path>
        <path d="M802.6 227.52L811.36 68.21" stroke="hsl(228.5, 77.2%, 51.5%)" stroke-width="1.5"></path>
        <path d="M814.17 355.74L814.17 355.74" stroke="hsl(228.5, 77.2%, 51.5%)" stroke-width="1.5"></path>
        <path d="M814.17 355.74L810.11 436.46" stroke="hsl(228.5, 77.2%, 51.5%)" stroke-width="1.5"></path>
        <path d="M814.17 355.74L701.26 342.38" stroke="hsl(228.5, 77.2%, 51.5%)" stroke-width="1.5"></path>
        <path d="M814.17 355.74L730.67 443" stroke="hsl(228.5, 77.2%, 51.5%)" stroke-width="1.5"></path>
        <path d="M814.17 355.74L702.31 250" stroke="hsl(228.5, 77.2%, 51.5%)" stroke-width="1.5"></path>
        <path d="M810.11 436.46L810.11 436.46" stroke="hsl(228.5, 77.2%, 51.5%)" stroke-width="1.5"></path>
        <path d="M810.11 436.46L815.69 541.94" stroke="hsl(228.5, 77.2%, 51.5%)" stroke-width="1.5"></path>
        <path d="M815.69 541.94L815.69 541.94" stroke="hsl(228.5, 77.2%, 51.5%)" stroke-width="1.5"></path>
        <path d="M815.69 541.94L832.16 644.57" stroke="hsl(228.5, 77.2%, 51.5%)" stroke-width="1.5"></path>
        <path d="M815.69 541.94L730.67 443" stroke="hsl(228.5, 77.2%, 51.5%)" stroke-width="1.5"></path>
        <path d="M815.69 541.94L700.57 649.69" stroke="hsl(228.5, 77.2%, 51.5%)" stroke-width="1.5"></path>
        <path d="M815.69 541.94L644.45 607.26" stroke="hsl(228.5, 77.2%, 51.5%)" stroke-width="1.5"></path>
        <path d="M832.16 644.57L832.16 644.57" stroke="hsl(228.5, 77.2%, 51.5%)" stroke-width="1.5"></path>
        <path d="M832.16 644.57L700.57 649.69" stroke="hsl(228.5, 77.2%, 51.5%)" stroke-width="1.5"></path>
        <circle r="25" cx="36.87" cy="644.61" fill="url(#SvgjsRadialGradient1011)"></circle>
        <circle r="25" cx="162.02" cy="532.37" fill="url(#SvgjsRadialGradient1011)"></circle>
        <circle r="25" cx="446.74" cy="426.55" fill="url(#SvgjsRadialGradient1011)"></circle>
        <circle r="25" cx="519.94" cy="531.47" fill="url(#SvgjsRadialGradient1011)"></circle>
        <circle r="25" cx="635.61" cy="63.11" fill="url(#SvgjsRadialGradient1011)"></circle>
        <circle r="25" cx="628.97" cy="255.51" fill="url(#SvgjsRadialGradient1011)"></circle>
        <circle r="25" cx="730.67" cy="443" fill="url(#SvgjsRadialGradient1011)"></circle>
        <circle r="25" cx="700.57" cy="649.69" fill="url(#SvgjsRadialGradient1011)"></circle>
        <circle r="25" cx="840.01" cy="129.81" fill="url(#SvgjsRadialGradient1011)"></circle>
        <circle r="5" cx="-49.83" cy="527.06" fill="#8b9ad9"></circle>
        <circle r="5" cx="-66.81" cy="629.13" fill="#8b9ad9"></circle>
        <circle r="5" cx="42.64" cy="515.17" fill="#8b9ad9"></circle>
        <circle r="5" cx="166.53" cy="454.6" fill="#8b9ad9"></circle>
        <circle r="5" cx="133.79" cy="613.42" fill="#8b9ad9"></circle>
        <circle r="5" cx="236.59" cy="455.4" fill="#8b9ad9"></circle>
        <circle r="5" cx="260.15" cy="533.12" fill="#8b9ad9"></circle>
        <circle r="5" cx="251.23" cy="638.83" fill="#8b9ad9"></circle>
        <circle r="5" cx="314.92" cy="448.93" fill="#8b9ad9"></circle>
        <circle r="5" cx="339.85" cy="518.81" fill="#8b9ad9"></circle>
        <circle r="5" cx="417.07" cy="508.91" fill="#8b9ad9"></circle>
        <circle r="5" cx="420.56" cy="612.68" fill="#8b9ad9"></circle>
        <circle r="5" cx="544.18" cy="220.43" fill="#8b9ad9"></circle>
        <circle r="5" cx="543.38" cy="355.24" fill="#8b9ad9"></circle>
        <circle r="5" cx="543.97" cy="438.6" fill="#8b9ad9"></circle>
        <circle r="5" cx="607.91" cy="130.18" fill="#8b9ad9"></circle>
        <circle r="5" cx="612.54" cy="318.8" fill="#8b9ad9"></circle>
        <circle r="5" cx="605.42" cy="441.64" fill="#8b9ad9"></circle>
        <circle r="5" cx="644.45" cy="607.26" fill="#8b9ad9"></circle>
        <circle r="5" cx="700.52" cy="-71.27" fill="#8b9ad9"></circle>
        <circle r="5" cx="742.66" cy="34.29" fill="#8b9ad9"></circle>
        <circle r="5" cx="718.63" cy="135.59" fill="#8b9ad9"></circle>
        <circle r="5" cx="702.31" cy="250" fill="#8b9ad9"></circle>
        <circle r="5" cx="701.26" cy="342.38" fill="#8b9ad9"></circle>
        <circle r="5" cx="704.14" cy="541.58" fill="#8b9ad9"></circle>
        <circle r="5" cx="818.66" cy="-43.9" fill="#8b9ad9"></circle>
        <circle r="5" cx="811.36" cy="68.21" fill="#8b9ad9"></circle>
        <circle r="5" cx="802.6" cy="227.52" fill="#8b9ad9"></circle>
        <circle r="5" cx="814.17" cy="355.74" fill="#8b9ad9"></circle>
        <circle r="5" cx="810.11" cy="436.46" fill="#8b9ad9"></circle>
        <circle r="5" cx="815.69" cy="541.94" fill="#8b9ad9"></circle>
        <circle r="5" cx="832.16" cy="644.57" fill="#8b9ad9"></circle>
    </g>
    <defs>
        <mask id="SvgjsMask1010">
            <rect width="770" height="560" fill="#ffffff"></rect>
        </mask>
        <radialGradient id="SvgjsRadialGradient1011">
            <stop stop-color="#ffffff" offset="0.1"></stop>
            <stop stop-color="#1735b3" offset="0.2"></stop>
            <stop stop-color="rgba(23, 53, 179, 0)" offset="1"></stop>
        </radialGradient>
    </defs>
</svg>